HIERARCHY
ROOT Hips
{
	OFFSET 0.00000 0.00000 0.00000
	CHANNELS 6 Xposition Yposition Zposition Zrotation Yrotation Xrotation 
	JOINT LHipJoint
	{
		OFFSET 0 0 0
		CHANNELS 3 Zrotation Yrotation Xrotation
		JOINT LeftHip
		{
			OFFSET 1.56857 -1.73443 1.15205
			CHANNELS 3 Zrotation Yrotation Xrotation
			JOINT LeftKnee
			{
				OFFSET 2.39362 -6.57643 0.00000
				CHANNELS 3 Zrotation Yrotation Xrotation
				JOINT LeftAnkle
				{
					OFFSET 2.50952 -6.89485 0.00000
					CHANNELS 3 Zrotation Yrotation Xrotation
					JOINT LeftToe
					{
						OFFSET 0.17171 -0.47178 1.88682
						CHANNELS 3 Zrotation Yrotation Xrotation
						End Site
						{
							OFFSET 0.00000 -0.00000 0.98146
						}
					}
				}
			}
		}
	}
	JOINT RHipJoint
	{
		OFFSET 0 0 0
		CHANNELS 3 Zrotation Yrotation Xrotation
		JOINT RightHip
		{
			OFFSET -1.28153 -1.73443 1.15205
			CHANNELS 3 Zrotation Yrotation Xrotation
			JOINT RightKnee
			{
				OFFSET -2.26861 -6.23296 0.00000
				CHANNELS 3 Zrotation Yrotation Xrotation
				JOINT RightAnkle
				{
					OFFSET -2.54143 -6.98254 0.00000
					CHANNELS 3 Zrotation Yrotation Xrotation
					JOINT RightToe
					{
						OFFSET -0.23309 -0.64041 1.93119
						CHANNELS 3 Zrotation Yrotation Xrotation
						End Site
						{
							OFFSET -0.00000 -0.00000 1.02013
						}
					}
				}
			}
		}
	}
	JOINT lowerback
	{
		OFFSET 0 0 0
		CHANNELS 3 Zrotation Yrotation Xrotation
		JOINT Chest
		{
			OFFSET -0.07096 2.10460 -0.27878
			CHANNELS 3 Zrotation Yrotation Xrotation
			JOINT Chest2
			{
				OFFSET -0.00826 2.13662 -0.08279
				CHANNELS 3 Zrotation Yrotation Xrotation
				JOINT lowerneck
				{
					OFFSET 0 0 0
					CHANNELS 3 Zrotation Yrotation Xrotation
					JOINT Neck
					{
						OFFSET 0.03239 1.77799 0.24435
						CHANNELS 3 Zrotation Yrotation Xrotation
						JOINT Head
						{
							OFFSET 0.01026 1.74194 -0.49664
							CHANNELS 3 Zrotation Yrotation Xrotation
							End Site
							{
								OFFSET 0.00170 1.83057 -0.19653
							}
						}
					}
				}
				JOINT LeftCollar
				{
					OFFSET 0 0 0
					CHANNELS 3 Zrotation Yrotation Xrotation
					JOINT LeftShoulder
					{
						OFFSET 3.19178 1.35907 -0.31412
CHANNELS 3 Zrotation Xrotation Yrotation
						JOINT LeftElbow
						{
OFFSET 0 -4.852470 -0.000000
CHANNELS 3 Zrotation Xrotation Yrotation
							JOINT LeftWrist
							{
OFFSET 0 -3.555840 0.000000
CHANNELS 3 Zrotation Xrotation Yrotation
								JOINT lhand
								{
									OFFSET 0 0 0
CHANNELS 3 Zrotation Xrotation Yrotation
									JOINT LFingers
									{
OFFSET 0 -0.693200 0.000000
CHANNELS 3 Zrotation Xrotation Yrotation
										End Site
										{
OFFSET 0 -0.558880 0.000000
										}
									}
								}
								JOINT LThumb
								{
OFFSET 0 0.000000 0.000000
CHANNELS 3 Zrotation Xrotation Yrotation
									End Site
									{
OFFSET 0 -0.567410 0.567410
									}
								}
							}
						}
					}
				}
				JOINT RightCollar
				{
					OFFSET 0 0 0
					CHANNELS 3 Zrotation Yrotation Xrotation
					JOINT RightShoulder
					{
						OFFSET -3.28999 1.24191 -0.26899
CHANNELS 3 Zrotation Xrotation Yrotation
						JOINT RightElbow
						{
OFFSET 0 -4.644620 0.000000
CHANNELS 3 Zrotation Xrotation Yrotation
							JOINT RightWrist
							{
OFFSET 0 -3.407030 0.000000
CHANNELS 3 Zrotation Xrotation Yrotation
								JOINT rhand
								{
									OFFSET 0 0 0
CHANNELS 3 Zrotation Xrotation Yrotation
									JOINT RFingers
									{
OFFSET 0 -0.619580 0.000000
CHANNELS 3 Zrotation Xrotation Yrotation
										End Site
										{
OFFSET 0 -0.499520 0.000000
										}
									}
								}
								JOINT RThumb
								{
OFFSET 0 0.000000 0.000000
CHANNELS 3 Zrotation Xrotation Yrotation
									End Site
									{
OFFSET 0 -0.507150 0.507150
									}
								}
							}
						}
					}
				}
			}
		}
	}
}
MOTION
Frames: 4
Frame Time: 0.008333333333333333
-30.313000 17.096600 0.875600 31.205300 85.992000 29.588400 0.000000 0.000000 0.000000 -17.578800 2.663400 10.527900 0.001100 0.215700 0.592600 0.344300 5.673400 -14.619100 0.285700 -3.437400 -9.498900 0.000000 0.000000 0.000000 12.814300 -4.785000 5.968400 -0.077100 -1.790700 4.927500 -0.765900 2.331400 -15.907500 -0.516000 -4.604200 12.783100 -4.638800 1.940900 5.742700 -0.344400 2.317800 1.059100 2.065300 1.198000 -2.294500 3.071300 1.829200 -20.836800 -0.627100 1.985400 25.316800 -0.409700 1.206100 11.795600 -0.000000 0.000000 0.000000 2.468300 0.289700 -40.162900 11.752100 -19.431800 2.019100 19.233700 7.906800 26.539100 0.000000 0.000000 0.000000 -7.125000 0.000000 0.000000 -6.426100 2.255300 -6.207900 -0.000000 0.000000 0.000000 -2.786100 4.082300 36.009900 -16.262900 -25.875800 -3.760000 -11.655300 10.894000 31.365300 0.000000 0.000000 0.000000 7.125000 0.000000 -0.000000 23.272800 60.347900 -8.997700
-30.310367 17.095882 0.875922 30.462402 85.969637 28.841703 0.000000 0.000000 0.000000 -17.570410 2.584258 10.600395 0.000993 0.201637 0.554139 0.331527 5.792988 -14.542813 0.270796 -3.346615 -9.245271 0.000000 0.000000 0.000000 12.859166 -4.797324 5.958390 -0.077175 -1.792016 4.931222 -0.765740 2.379196 -15.896729 -0.520182 -4.622652 12.835253 -4.586231 1.965641 5.711470 -0.364573 2.355098 1.056345 2.013042 1.215840 -2.279483 3.072472 1.840650 -20.952497 -0.539387 1.975406 25.455435 -0.377203 1.215072 11.871130 0.000000 0.000000 0.000000 2.477274 0.264309 -39.959338 11.685023 -19.330526 1.996830 17.849443 8.589308 27.005003 0.000000 0.000000 0.000000 -7.125000 0.000000 0.000000 -7.300410 2.013744 -7.097860 0.000000 0.000000 0.000000 -2.704268 4.082139 35.833924 -16.264563 -25.878084 -3.760699 -11.291076 10.924658 31.766309 0.000000 0.000000 0.000000 7.125000 0.000000 0.000000 23.995665 60.624358 -9.456014
-30.307399 17.095486 0.877865 26.920549 86.022513 25.245544 0.000000 0.000000 0.000000 -17.272465 2.553501 10.753746 0.000664 0.168852 0.464005 0.328928 5.868312 -14.572395 0.237756 -3.137952 -8.662973 0.000000 0.000000 0.000000 13.172493 -4.777680 6.036113 -0.076642 -1.786334 4.915639 -0.769665 2.412327 -15.932462 -0.469735 -4.395792 12.193040 -4.322590 1.985579 5.741505 -0.311748 2.397160 1.070757 1.915948 1.234541 -2.276059 2.966092 1.849333 -21.043390 -0.360670 1.970018 25.523761 -0.292316 1.226563 11.912270 0.000000 0.000000 0.000000 2.544350 0.346715 -40.244025 11.769531 -19.458025 2.024813 17.962908 8.197122 27.059169 0.000000 0.000000 0.000000 -7.125000 0.000000 0.000000 -7.237766 1.939751 -7.045517 0.000000 0.000000 0.000000 -2.690470 4.089283 35.557123 -16.154621 -25.729774 -3.712822 -10.976988 10.951800 31.108720 0.000000 0.000000 0.000000 7.125000 0.000000 0.000000 23.764810 59.956532 -8.977174
-30.302309 17.094085 0.880304 26.145813 86.014963 24.353714 0.000000 0.000000 0.000000 -17.371206 2.176812 11.232777 0.000078 0.060262 0.165651 0.323540 6.339707 -14.919524 0.223260 -3.040503 -8.391701 0.000000 0.000000 0.000000 13.241609 -4.748503 6.252059 -0.073932 -1.753875 4.825869 -0.770257 2.327376 -15.955792 -0.465664 -4.376409 12.138102 -4.325875 2.009160 5.841706 -0.262529 2.423776 1.061899 1.962655 1.249276 -2.345294 2.849153 1.872740 -21.058227 -0.269756 2.021427 25.623482 -0.229399 1.252234 11.952254 0.000000 0.000000 0.000000 2.467089 0.528456 -40.202413 11.834051 -19.555268 2.046371 18.233903 8.072436 27.183796 0.000000 0.000000 0.000000 -7.125000 0.000000 0.000000 -7.087805 1.767006 -6.919412 0.000000 0.000000 0.000000 -2.750924 4.181267 35.937368 -16.284237 -25.904523 -3.769308 -11.496754 10.920398 31.879598 0.000000 0.000000 0.000000 7.125000 0.000000 0.000000 23.878543 60.775947 -9.492729
